<mxfile host="app.diagrams.net" agent="Mozilla/5.0 (X11; Linux x86_64; rv:131.0) Gecko/20100101 Firefox/131.0" version="24.7.17">
  <diagram name="Page-1" id="6RMEfRpEJFrlvqFbWgGQ">
    <mxGraphModel dx="1050" dy="563" grid="1" gridSize="10" guides="1" tooltips="1" connect="1" arrows="1" fold="1" page="1" pageScale="1" pageWidth="827" pageHeight="1169" math="0" shadow="0">
      <root>
        <mxCell id="0" />
        <mxCell id="1" parent="0" />
        <mxCell id="f6e6Iaz1Mquv8mcxExit-1" value="Scenario 1" style="rounded=1;whiteSpace=wrap;html=1;fontSize=13;fontStyle=1;labelPosition=center;verticalLabelPosition=bottom;align=center;verticalAlign=top;" vertex="1" parent="1">
          <mxGeometry x="180" y="100" width="190" height="310" as="geometry" />
        </mxCell>
        <mxCell id="f6e6Iaz1Mquv8mcxExit-2" value="" style="rounded=1;whiteSpace=wrap;html=1;" vertex="1" parent="1">
          <mxGeometry x="470" y="100" width="140" height="100" as="geometry" />
        </mxCell>
        <mxCell id="f6e6Iaz1Mquv8mcxExit-3" value="Scenario2" style="rounded=1;whiteSpace=wrap;html=1;fontStyle=1;fontSize=13;labelPosition=center;verticalLabelPosition=bottom;align=center;verticalAlign=top;" vertex="1" parent="1">
          <mxGeometry x="470" y="310" width="140" height="100" as="geometry" />
        </mxCell>
        <mxCell id="f6e6Iaz1Mquv8mcxExit-6" value="Java Container" style="sketch=0;aspect=fixed;pointerEvents=1;shadow=0;dashed=0;html=1;strokeColor=none;labelPosition=center;verticalLabelPosition=top;verticalAlign=bottom;align=center;fillColor=#00188D;shape=mxgraph.mscae.enterprise.application_server;fontStyle=1;fontSize=13;textShadow=0;labelBorderColor=default;labelBackgroundColor=none;spacing=5;" vertex="1" parent="1">
          <mxGeometry x="258.5" y="150" width="43" height="50" as="geometry" />
        </mxCell>
        <mxCell id="f6e6Iaz1Mquv8mcxExit-7" value="Java Container" style="sketch=0;aspect=fixed;pointerEvents=1;shadow=0;dashed=0;html=1;strokeColor=none;labelPosition=center;verticalLabelPosition=bottom;verticalAlign=top;align=center;fillColor=#00188D;shape=mxgraph.mscae.enterprise.application;fontStyle=1;fontSize=13;labelBorderColor=default;spacing=5;" vertex="1" parent="1">
          <mxGeometry x="255" y="320" width="50" height="34" as="geometry" />
        </mxCell>
        <mxCell id="f6e6Iaz1Mquv8mcxExit-8" value="Java Container" style="sketch=0;aspect=fixed;pointerEvents=1;shadow=0;dashed=0;html=1;strokeColor=none;labelPosition=center;verticalLabelPosition=top;verticalAlign=bottom;align=center;fillColor=#00188D;shape=mxgraph.mscae.enterprise.application_server;fontStyle=1;fontSize=13;textShadow=0;labelBorderColor=default;labelBackgroundColor=none;spacing=5;" vertex="1" parent="1">
          <mxGeometry x="518.5" y="140" width="43" height="50" as="geometry" />
        </mxCell>
        <mxCell id="f6e6Iaz1Mquv8mcxExit-9" value="Java Container" style="sketch=0;aspect=fixed;pointerEvents=1;shadow=0;dashed=0;html=1;strokeColor=none;labelPosition=center;verticalLabelPosition=bottom;verticalAlign=top;align=center;fillColor=#00188D;shape=mxgraph.mscae.enterprise.application;fontStyle=1;fontSize=13;labelBorderColor=default;spacing=5;" vertex="1" parent="1">
          <mxGeometry x="515" y="320" width="50" height="34" as="geometry" />
        </mxCell>
        <mxCell id="f6e6Iaz1Mquv8mcxExit-11" value="" style="shape=image;html=1;verticalAlign=top;verticalLabelPosition=bottom;labelBackgroundColor=#ffffff;imageAspect=0;aspect=fixed;image=https://cdn4.iconfinder.com/data/icons/emoticons-filled-two-color/614/1083_-_Alien-128.png" vertex="1" parent="1">
          <mxGeometry x="180" y="225" width="60" height="60" as="geometry" />
        </mxCell>
        <mxCell id="f6e6Iaz1Mquv8mcxExit-12" value="" style="shape=image;html=1;verticalAlign=top;verticalLabelPosition=bottom;labelBackgroundColor=#ffffff;imageAspect=0;aspect=fixed;image=https://cdn4.iconfinder.com/data/icons/emoticons-filled-two-color/614/1083_-_Alien-128.png" vertex="1" parent="1">
          <mxGeometry x="470" y="310" width="30" height="30" as="geometry" />
        </mxCell>
        <mxCell id="f6e6Iaz1Mquv8mcxExit-14" value="" style="endArrow=classic;html=1;rounded=0;entryX=0.25;entryY=1;entryDx=0;entryDy=0;exitX=0.25;exitY=0;exitDx=0;exitDy=0;horizontal=1;fontSize=12;dashed=1;strokeWidth=3;endFill=1;" edge="1" parent="1">
          <mxGeometry width="50" height="50" relative="1" as="geometry">
            <mxPoint x="518.5" y="308" as="sourcePoint" />
            <mxPoint x="518.5" y="198" as="targetPoint" />
          </mxGeometry>
        </mxCell>
        <mxCell id="f6e6Iaz1Mquv8mcxExit-15" value="" style="endArrow=classic;html=1;rounded=0;exitX=0.25;exitY=0;exitDx=0;exitDy=0;horizontal=1;fontSize=12;dashed=1;strokeWidth=3;endFill=1;entryX=0.333;entryY=0.355;entryDx=0;entryDy=0;entryPerimeter=0;" edge="1" parent="1">
          <mxGeometry width="50" height="50" relative="1" as="geometry">
            <mxPoint x="258.58" y="303.98" as="sourcePoint" />
            <mxPoint x="258.50000000000006" y="206.02999999999994" as="targetPoint" />
          </mxGeometry>
        </mxCell>
        <mxCell id="f6e6Iaz1Mquv8mcxExit-16" value="" style="endArrow=classic;html=1;rounded=0;entryX=0.75;entryY=0;entryDx=0;entryDy=0;exitX=0.75;exitY=1;exitDx=0;exitDy=0;horizontal=1;fontSize=12;dashed=1;strokeWidth=3;endFill=1;" edge="1" parent="1">
          <mxGeometry width="50" height="50" relative="1" as="geometry">
            <mxPoint x="561.5" y="200" as="sourcePoint" />
            <mxPoint x="561.5" y="310" as="targetPoint" />
          </mxGeometry>
        </mxCell>
        <mxCell id="f6e6Iaz1Mquv8mcxExit-17" value="" style="endArrow=classic;html=1;rounded=0;exitX=0.75;exitY=1;exitDx=0;exitDy=0;horizontal=1;fontSize=12;dashed=1;strokeWidth=3;endFill=1;" edge="1" parent="1">
          <mxGeometry width="50" height="50" relative="1" as="geometry">
            <mxPoint x="301.5" y="210" as="sourcePoint" />
            <mxPoint x="301.5" y="310" as="targetPoint" />
          </mxGeometry>
        </mxCell>
      </root>
    </mxGraphModel>
  </diagram>
</mxfile>
